<?xml version="1.0" standalone="no"?>
<!DOCTYPE svg PUBLIC "-//W3C//DTD SVG 20010904//EN"
 "http://www.w3.org/TR/2001/REC-SVG-20010904/DTD/svg10.dtd">
<svg version="1.0" xmlns="http://www.w3.org/2000/svg"
 width="512.000000pt" height="512.000000pt" viewBox="0 0 512.000000 512.000000"
 preserveAspectRatio="xMidYMid meet">
<metadata>
Created by potrace 1.14, written by Peter Selinger 2001-2017
</metadata>
<g transform="translate(0.000000,512.000000) scale(0.100000,-0.100000)"
fill="#000000" stroke="none">
<path d="M959 3813 c-1 -5 -1 -12 0 -17 1 -5 -4 -4 -13 3 -10 9 -16 9 -21 1
-4 -6 -13 -9 -21 -6 -8 3 -17 -1 -20 -9 -4 -8 -10 -12 -15 -9 -5 3 -4 -6 2
-20 7 -14 16 -23 20 -20 5 3 9 0 9 -6 0 -6 4 -8 10 -5 6 3 7 -1 4 -10 -7 -17
25 -47 40 -38 5 4 6 1 2 -6 -4 -6 -12 -9 -17 -6 -5 4 -9 1 -9 -4 0 -6 7 -11
16 -11 8 0 12 -4 9 -10 -3 -5 1 -10 10 -10 9 0 13 -4 10 -10 -3 -5 -1 -10 5
-10 6 0 8 -4 5 -10 -3 -5 2 -10 12 -11 10 0 13 -3 6 -6 -10 -3 -9 -8 2 -20 8
-8 13 -19 10 -24 -4 -5 1 -6 10 -3 11 4 14 2 9 -9 -3 -8 0 -18 7 -23 8 -5 10
-3 5 7 -4 8 -1 5 8 -6 8 -11 20 -25 25 -31 5 -7 7 -15 4 -18 -4 -3 0 -6 7 -6
7 0 10 -3 7 -7 -4 -3 1 -12 11 -20 10 -9 11 -12 2 -7 -8 4 -2 -5 13 -19 15
-15 25 -32 22 -37 -3 -6 2 -10 12 -11 11 0 13 -3 5 -6 -9 -3 -5 -12 14 -28 17
-14 24 -27 19 -35 -5 -9 -4 -11 3 -6 7 4 12 1 12 -8 0 -9 5 -16 11 -16 5 0 7
-4 4 -10 -3 -5 1 -10 10 -10 9 0 13 -4 10 -10 -3 -5 -1 -10 6 -10 7 0 10 -3 6
-6 -3 -3 7 -18 22 -32 25 -25 25 -25 2 -7 l-26 20 20 -25 c11 -13 26 -31 33
-38 7 -7 10 -18 7 -23 -4 -5 1 -9 10 -9 9 0 13 -4 10 -10 -3 -5 6 -12 20 -16
15 -4 22 -11 18 -18 -3 -6 -3 -8 2 -4 4 4 17 3 29 -3 19 -9 19 -9 4 4 -16 13
-15 14 11 13 16 -1 27 -4 24 -8 -2 -5 1 -8 6 -8 6 0 11 5 11 10 0 8 6 8 17 1
13 -7 23 -5 37 7 12 11 16 12 11 3 -6 -11 -2 -13 18 -9 15 3 24 2 22 -2 -3 -5
2 -10 10 -13 9 -4 12 -1 8 9 -4 10 0 12 11 8 9 -3 16 -11 16 -18 0 -6 5 -4 10
4 5 8 10 12 10 8 0 -4 14 -3 31 2 26 8 29 7 18 -6 -10 -12 -9 -13 5 -8 9 3 16
11 16 16 0 6 6 5 15 -2 12 -10 15 -10 15 0 0 9 6 8 19 -4 18 -16 20 -16 38 7
14 19 23 23 36 16 13 -8 15 -5 12 10 -3 15 0 18 12 14 12 -5 14 -3 8 8 -6 11
-5 12 6 2 16 -16 29 -17 29 -2 0 5 -5 7 -12 3 -6 -4 -8 -3 -4 4 3 6 16 9 27 7
15 -3 19 0 15 10 -3 8 -2 14 2 14 4 -1 10 0 15 1 19 6 33 5 39 -5 5 -6 8 -2 8
8 0 15 4 16 20 7 16 -8 18 -8 14 4 -3 8 0 17 7 22 7 4 10 3 5 -4 -3 -6 -2 -13
4 -17 5 -3 10 -2 10 3 0 6 14 15 30 21 24 8 29 7 24 -2 -4 -7 3 -3 16 8 13 11
20 15 17 9 -4 -7 0 -15 9 -18 10 -4 13 -2 8 6 -5 8 -2 9 9 5 10 -3 17 -2 17 3
0 5 7 6 17 3 12 -5 14 -3 8 8 -8 12 -6 12 8 0 14 -11 17 -11 17 0 0 11 2 11
10 -1 9 -13 11 -13 20 0 5 9 10 10 10 3 0 -9 19 -11 40 -3 16 6 37 4 55 -7 13
-8 26 -9 35 -3 8 5 21 5 31 -1 12 -6 19 -5 22 4 3 7 6 5 6 -5 1 -20 16 -24 27
-6 5 7 3 8 -6 3 -9 -5 -11 -4 -6 4 4 6 12 9 17 5 5 -3 6 -10 3 -16 -5 -7 -1
-9 9 -5 9 3 18 1 21 -6 3 -8 5 -7 5 2 1 11 5 10 17 -5 15 -18 15 -18 10 0 -5
15 -4 17 7 8 8 -7 18 -8 22 -4 5 4 5 2 1 -5 -3 -6 -2 -14 4 -18 5 -3 10 0 10
7 0 9 3 9 8 2 4 -6 19 -10 34 -10 14 1 24 -2 22 -6 -3 -4 0 -8 6 -8 6 0 8 -5
4 -12 -5 -8 0 -7 11 2 13 10 16 11 11 2 -5 -9 -3 -13 5 -11 29 3 39 -2 39 -18
0 -14 2 -15 9 -5 11 19 19 17 42 -9 10 -12 19 -18 19 -13 0 5 5 2 10 -6 8 -13
10 -13 10 -1 0 11 4 9 15 -5 8 -10 15 -14 15 -9 0 6 18 10 40 10 22 0 40 -4
40 -10 0 -5 5 -3 10 5 6 9 10 10 10 3 0 -8 9 -9 30 -3 21 6 30 5 30 -3 0 -7 4
-6 10 3 6 10 10 11 10 3 0 -7 7 -13 15 -13 8 0 15 5 15 10 0 7 6 7 20 0 11 -6
20 -8 20 -4 0 3 8 0 17 -7 9 -8 14 -9 10 -3 -4 7 3 14 18 16 13 3 22 2 20 -2
-3 -5 2 -10 10 -13 8 -4 12 -1 9 7 -5 14 52 16 73 3 6 -4 13 -2 15 4 2 7 11 5
23 -7 18 -19 19 -19 13 2 -3 13 -1 21 8 21 7 0 10 -5 7 -10 -4 -6 -1 -7 6 -3
7 5 10 15 7 23 -5 11 -2 13 9 9 9 -3 13 -2 10 4 -3 5 3 18 15 30 11 11 17 20
14 20 -4 0 5 9 19 20 14 12 24 27 21 34 -3 7 7 21 21 30 14 9 23 21 21 25 -3
4 1 17 9 27 10 14 14 15 15 5 0 -8 3 -11 6 -8 4 4 1 13 -5 21 -9 11 -9 16 0
22 8 4 9 3 5 -4 -4 -7 -5 -12 -1 -12 3 0 10 12 15 26 6 14 14 22 20 19 5 -3 7
0 4 8 -3 8 0 18 7 23 8 5 10 3 4 -6 -5 -9 -4 -11 4 -6 9 6 9 11 0 22 -10 12
-8 16 9 21 12 3 19 9 16 14 -3 5 -1 9 5 9 6 0 15 10 22 21 9 17 8 20 -2 14 -8
-6 -10 -4 -5 4 5 7 13 10 20 8 7 -3 13 4 13 16 1 12 12 30 25 40 13 10 17 16
10 12 -11 -6 -11 -3 -1 13 7 12 17 18 21 16 7 -5 13 19 9 39 -1 5 3 6 9 2 5
-3 10 0 10 8 0 8 10 22 23 31 12 9 16 14 9 10 -11 -5 -11 -2 -1 14 7 12 15 19
17 17 3 -2 14 8 26 22 23 30 33 73 16 73 -6 0 -8 6 -4 13 6 10 4 10 -7 0 -7
-7 -21 -13 -30 -13 -10 0 -20 6 -22 13 -4 10 -6 10 -6 0 -1 -7 -6 -13 -12 -13
-5 0 -7 6 -3 13 6 10 4 10 -7 0 -20 -19 -33 -16 -18 5 12 15 11 15 -8 -1 -20
-17 -22 -17 -31 -2 -8 16 -10 16 -16 -1 -7 -18 -8 -18 -23 1 -13 16 -15 17
-10 3 4 -10 2 -18 -3 -18 -6 0 -10 5 -10 10 0 6 -5 10 -11 10 -5 0 -7 -4 -4
-10 3 -5 -1 -10 -10 -10 -10 0 -13 5 -9 13 6 9 4 9 -7 2 -20 -14 -48 -12 -58
3 -6 11 -10 10 -15 -5 -7 -17 -8 -17 -23 2 -13 16 -15 17 -10 3 4 -10 2 -18
-3 -18 -6 0 -10 5 -10 10 0 6 -5 10 -11 10 -5 0 -7 -4 -4 -10 3 -5 -1 -10 -10
-10 -10 0 -13 5 -9 13 6 9 4 9 -7 2 -20 -14 -48 -12 -58 3 -6 11 -10 10 -15
-5 -7 -17 -8 -17 -23 2 -13 16 -15 17 -10 3 4 -10 2 -18 -3 -18 -6 0 -10 5
-10 10 0 6 -5 10 -11 10 -5 0 -7 -4 -4 -10 3 -5 -1 -10 -10 -10 -10 0 -13 5
-9 13 6 9 4 9 -7 2 -20 -14 -48 -12 -58 3 -6 11 -10 10 -15 -5 -7 -17 -8 -17
-23 2 -13 16 -15 17 -10 3 4 -10 2 -18 -3 -18 -6 0 -10 5 -10 10 0 6 -5 10
-11 10 -5 0 -7 -4 -4 -10 3 -5 -1 -10 -10 -10 -10 0 -13 5 -9 13 6 9 4 9 -7 2
-20 -14 -48 -12 -58 3 -6 11 -10 10 -15 -5 -7 -17 -8 -17 -23 2 -13 16 -15 17
-10 3 4 -10 2 -18 -3 -18 -6 0 -10 5 -10 10 0 6 -5 10 -11 10 -5 0 -7 -4 -4
-10 3 -5 -1 -10 -10 -10 -10 0 -13 5 -9 13 6 9 4 9 -7 2 -20 -14 -48 -12 -58
3 -6 11 -10 10 -15 -5 -7 -17 -8 -17 -23 2 -13 16 -15 17 -10 3 4 -10 2 -18
-3 -18 -6 0 -10 5 -10 10 0 6 -5 10 -11 10 -5 0 -7 -4 -4 -10 3 -5 -1 -10 -10
-10 -10 0 -13 5 -9 13 6 9 5 9 -7 0 -12 -10 -18 -10 -29 0 -9 9 -11 9 -6 0 8
-15 -36 -14 -46 2 -4 5 -8 -1 -8 -15 0 -20 -2 -22 -10 -10 -8 13 -11 13 -22 1
-11 -11 -11 -13 1 -6 9 5 12 3 9 -6 -3 -8 -10 -15 -16 -15 -23 -3 -24 -4 -12
-19 9 -11 9 -15 1 -15 -6 0 -16 -11 -21 -25 -5 -14 -14 -25 -20 -25 -6 0 -8
-4 -5 -10 3 -5 1 -10 -5 -10 -6 0 -9 -4 -6 -9 3 -5 -1 -12 -10 -15 -10 -4 -14
-14 -11 -25 3 -12 0 -18 -7 -15 -6 2 -16 -7 -23 -21 -8 -19 -8 -24 0 -19 7 3
4 -1 -7 -10 -10 -8 -15 -20 -10 -27 4 -8 3 -10 -4 -5 -7 4 -12 1 -12 -6 0 -8
-7 -23 -16 -34 -8 -10 -12 -13 -8 -5 4 9 3 12 -4 8 -5 -4 -8 -16 -5 -27 3 -12
0 -20 -6 -20 -7 0 -9 5 -5 12 5 7 3 8 -5 4 -7 -5 -10 -11 -7 -14 3 -3 -2 -15
-11 -26 -17 -20 -17 -20 1 -6 18 14 18 14 6 -7 -8 -12 -17 -20 -21 -17 -4 2
-10 -3 -13 -12 -3 -8 -2 -12 4 -9 6 3 10 4 10 1 0 -3 -8 -10 -18 -15 -24 -13
-73 16 -51 30 11 7 10 9 -3 9 -9 0 -20 5 -24 12 -4 7 -3 8 4 4 8 -5 10 -2 6 8
-3 9 -14 16 -23 16 -14 0 -14 2 -1 10 12 8 10 10 -8 10 -14 0 -21 4 -17 11 4
5 -1 20 -12 31 -10 12 -12 18 -4 13 10 -5 12 -4 7 3 -4 7 -15 12 -24 13 -11 0
-13 2 -4 6 10 4 9 9 -5 20 -10 8 -12 12 -5 8 6 -3 12 -1 12 6 0 6 -8 9 -20 6
-17 -4 -18 -2 -9 15 6 12 7 18 1 14 -5 -3 -16 2 -23 11 -8 9 -9 14 -2 10 7 -5
9 0 6 14 -4 16 -8 17 -14 7 -6 -9 -9 -6 -9 10 0 13 -11 33 -25 46 -26 24 -34
42 -12 30 6 -4 5 1 -4 12 -9 10 -22 28 -28 39 -11 18 -12 18 -7 1 5 -16 4 -17
-8 -7 -8 7 -12 19 -9 28 4 11 2 14 -8 11 -8 -3 -27 1 -43 9 -15 8 -25 10 -22
4 4 -6 3 -11 -3 -11 -5 0 -12 6 -14 13 -4 10 -6 10 -6 0 -1 -7 -6 -13 -12 -13
-6 0 -8 8 -5 18 6 16 5 16 -8 0 -13 -18 -32 -26 -22 -10 2 4 -11 8 -29 8 -18
0 -32 -3 -30 -6 2 -3 -5 -6 -15 -6 -10 0 -17 4 -14 7 2 4 -1 11 -7 15 -8 4 -9
3 -5 -4 4 -7 2 -12 -4 -12 -6 0 -8 -4 -5 -10 3 -5 0 -7 -9 -4 -8 3 -14 11 -12
17 1 7 1 9 -1 4 -3 -4 -10 -4 -15 -1 -7 4 -8 2 -4 -4 4 -7 2 -12 -3 -12 -6 0
-11 6 -11 13 0 9 -3 8 -9 -2 -7 -11 -9 -11 -14 0 -4 10 -6 10 -6 2 -1 -7 -6
-13 -12 -13 -6 0 -8 8 -5 18 6 16 5 16 -8 0 -13 -18 -32 -26 -22 -10 2 4 -11
8 -29 8 -18 0 -32 -3 -30 -6 2 -3 -5 -6 -15 -6 -10 0 -17 4 -14 7 2 4 -1 11
-7 15 -8 4 -9 3 -5 -4 4 -7 2 -12 -4 -12 -6 0 -8 -4 -5 -10 3 -5 0 -7 -9 -4
-8 3 -14 11 -12 17 1 7 1 9 -1 4 -3 -4 -10 -4 -15 -1 -7 4 -8 2 -4 -4 4 -7 2
-12 -3 -12 -6 0 -11 6 -11 13 0 9 -3 8 -9 -2 -7 -11 -9 -11 -14 0 -4 10 -6 10
-6 2 -1 -7 -6 -13 -12 -13 -6 0 -8 8 -5 18 5 15 5 15 -8 -1 -14 -18 -15 -18
-26 0 -10 15 -11 16 -6 1 3 -10 0 -20 -6 -24 -6 -4 -8 -3 -4 4 3 6 2 13 -4 17
-5 3 -10 2 -10 -2 0 -5 -13 -10 -30 -11 -19 -1 -30 2 -30 10 0 9 -3 8 -10 -2
-9 -13 -10 -13 -10 0 0 9 -3 11 -8 4 -8 -11 -53 -14 -46 -3 2 4 -1 11 -7 15
-8 4 -9 3 -5 -4 4 -7 2 -12 -4 -12 -6 0 -8 -4 -5 -10 3 -5 0 -7 -9 -4 -8 3
-14 11 -12 17 1 7 1 9 -1 4 -3 -4 -10 -4 -15 -1 -7 4 -8 2 -4 -4 4 -7 2 -12
-3 -12 -6 0 -11 6 -11 13 0 9 -3 8 -9 -2 -7 -11 -9 -11 -14 0 -4 10 -6 10 -6
2 -1 -7 -6 -13 -12 -13 -6 0 -8 8 -5 18 5 15 5 15 -8 -1 -14 -18 -15 -18 -26
0 -10 15 -11 16 -6 1 3 -10 0 -20 -6 -24 -6 -4 -8 -3 -4 4 3 6 2 13 -4 17 -5
3 -10 2 -10 -2 0 -5 -13 -10 -30 -11 -19 -1 -30 2 -30 10 0 9 -3 8 -10 -2 -9
-13 -10 -13 -10 0 0 12 -2 13 -9 1 -5 -7 -14 -10 -20 -7 -6 4 -9 12 -6 17 4 5
4 9 1 9 -3 0 -7 -3 -7 -7z m-64 -53 c3 -5 1 -10 -4 -10 -6 0 -11 5 -11 10 0 6
2 10 4 10 3 0 8 -4 11 -10z m2905 -14 c0 -3 -4 -8 -10 -11 -5 -3 -10 -1 -10 4
0 6 5 11 10 11 6 0 10 -2 10 -4z m-345 -506 c-3 -5 -11 -10 -16 -10 -6 0 -7 5
-4 10 3 6 11 10 16 10 6 0 7 -4 4 -10z m-40 -60 c-3 -5 -12 -10 -18 -10 -7 0
-6 4 3 10 19 12 23 12 15 0z m-1765 -116 c0 -8 -19 -13 -24 -6 -3 5 1 9 9 9 8
0 15 -2 15 -3z m1480 0 c0 -8 -19 -13 -24 -6 -3 5 1 9 9 9 8 0 15 -2 15 -3z
m-1350 -8 c0 -3 -4 -8 -10 -11 -5 -3 -10 -1 -10 4 0 6 5 11 10 11 6 0 10 -2
10 -4z"/>
<path d="M3760 3810 c-9 -6 -10 -10 -3 -10 6 0 15 5 18 10 8 12 4 12 -15 0z"/>
<path d="M1937 3133 c-4 -3 -7 -11 -7 -17 0 -6 5 -5 12 2 6 6 9 14 7 17 -3 3
-9 2 -12 -2z"/>
<path d="M2293 2976 c4 -5 -5 -18 -20 -28 -16 -10 -23 -18 -17 -18 5 0 16 6
23 13 8 6 3 -3 -9 -20 -13 -18 -28 -33 -32 -33 -5 0 -7 -4 -4 -9 3 -5 -1 -12
-10 -15 -8 -3 -13 -10 -9 -15 3 -6 -5 -20 -17 -32 -13 -12 -17 -19 -10 -15 6
4 12 4 12 1 0 -11 -27 -34 -33 -29 -3 3 -4 -6 -3 -20 3 -20 0 -24 -9 -16 -9 8
-12 4 -9 -16 1 -15 -3 -27 -12 -31 -8 -3 -14 -12 -14 -20 0 -8 -4 -12 -9 -9
-5 3 -12 -1 -15 -10 -4 -10 -2 -13 6 -8 7 4 8 3 4 -4 -4 -7 -14 -12 -22 -12
-8 0 -12 -5 -9 -10 4 -6 12 -8 18 -4 7 3 1 -4 -13 -15 -14 -11 -20 -21 -15
-21 6 0 3 -5 -5 -11 -12 -9 -12 -10 4 -5 11 4 23 1 28 -6 6 -10 8 -10 8 2 0
13 1 13 10 0 7 -11 10 -11 10 -2 0 8 5 10 12 6 19 -12 48 -12 41 -1 -4 6 0 8
10 4 15 -6 22 3 18 25 0 4 7 4 16 1 11 -4 14 -3 9 5 -4 7 -2 12 4 12 6 0 8 5
5 10 -3 6 -1 10 6 10 6 0 9 8 6 19 -4 15 0 19 15 16 15 -3 17 -1 9 9 -8 10 -4
20 16 41 16 16 22 25 16 21 -9 -5 -11 -2 -7 8 3 9 9 14 13 13 3 -2 17 8 31 21
23 23 24 24 3 13 -13 -6 -23 -8 -23 -3 0 18 39 20 52 4 11 -13 11 -15 -2 -8
-8 4 -6 0 5 -9 11 -9 19 -23 17 -31 -2 -8 2 -14 8 -14 6 0 8 -4 5 -10 -3 -5
-1 -10 5 -10 7 0 10 -7 7 -15 -4 -8 -2 -17 4 -20 5 -4 7 -10 4 -15 -3 -4 3 -7
13 -6 11 1 16 -5 14 -17 -2 -9 4 -20 12 -23 9 -3 12 -12 9 -22 -5 -12 -2 -14
11 -9 14 6 16 3 11 -16 -6 -18 -5 -20 6 -9 15 14 33 16 25 3 -7 -11 13 -9 32
2 7 5 12 3 12 -5 0 -10 2 -10 9 0 4 8 12 14 16 14 4 0 12 -6 16 -14 7 -10 9
-10 9 0 0 7 4 10 10 7 6 -3 7 1 4 9 -3 9 -11 13 -17 9 -6 -3 -7 -1 -3 6 4 6
-2 23 -13 37 -11 15 -18 30 -15 35 3 5 0 9 -5 9 -6 0 -10 3 -10 8 4 21 -2 32
-13 26 -8 -5 -9 -2 -5 9 4 11 1 17 -7 17 -9 0 -12 8 -9 23 3 16 2 18 -5 9 -7
-11 -10 -11 -15 2 -4 9 -1 16 5 16 16 0 3 11 -16 14 -9 1 -15 6 -14 12 2 5 6
8 10 7 5 -2 8 2 8 7 0 6 -7 10 -16 10 -8 0 -12 5 -9 10 3 6 -1 10 -9 10 -9 0
-13 7 -11 19 2 11 -7 28 -21 40 -14 12 -22 25 -20 30 7 10 -52 37 -61 28 -3
-4 -14 -2 -24 4 -15 8 -17 6 -12 -8 6 -16 4 -16 -18 2 -13 11 -21 16 -16 11z"/>
<path d="M2832 2957 c-12 -14 -50 -15 -73 -2 -7 5 -5 -2 6 -15 l20 -23 -20 11
c-17 9 -20 7 -20 -13 0 -17 3 -21 12 -14 7 7 14 6 18 -1 3 -5 0 -10 -7 -10 -9
-1 -7 -5 5 -14 9 -7 17 -18 17 -24 0 -6 6 -13 13 -15 9 -4 9 -6 -1 -6 -7 -1
-10 -6 -7 -11 5 -7 11 -8 19 -1 8 7 12 5 12 -9 0 -10 -5 -16 -11 -13 -5 3 2
-7 18 -21 15 -15 25 -31 22 -37 -4 -5 -1 -9 5 -9 6 0 9 -4 6 -9 -3 -5 1 -11 9
-15 8 -3 15 -15 15 -27 0 -14 5 -19 14 -16 10 4 13 1 9 -10 -3 -8 0 -18 6 -23
7 -4 14 -16 15 -26 2 -10 8 -18 13 -17 5 1 10 -5 11 -13 1 -7 3 -21 4 -29 1
-8 4 -12 8 -10 3 2 12 0 20 -6 10 -5 11 -9 3 -9 -7 0 -10 -7 -7 -15 4 -8 10
-13 14 -10 4 3 11 -2 14 -11 4 -10 2 -13 -7 -9 -6 4 -5 1 4 -7 9 -7 14 -19 11
-27 -3 -9 0 -11 8 -6 10 6 12 4 7 -8 -4 -12 -1 -17 11 -17 13 0 14 -2 3 -9
-10 -6 -10 -10 -1 -16 8 -5 7 -12 -5 -25 -11 -12 -13 -20 -6 -25 15 -9 14 -28
-1 -19 -10 6 -10 4 0 -7 6 -7 12 -17 12 -22 0 -4 -6 -5 -12 -1 -8 5 -7 1 2
-10 15 -20 23 -49 10 -41 -13 8 -19 -22 -7 -34 9 -9 9 -14 -2 -20 -11 -7 -11
-9 0 -14 12 -5 12 -7 0 -15 -11 -8 -11 -11 0 -16 11 -4 11 -7 2 -12 -10 -4
-10 -8 0 -19 8 -8 16 -10 24 -4 7 7 14 6 19 -2 4 -8 3 -9 -4 -5 -8 5 -10 1 -5
-9 4 -12 8 -13 13 -5 5 8 13 9 21 4 12 -6 12 -5 1 8 -12 15 -11 16 17 5 16 -6
27 -16 23 -21 -3 -6 1 -5 10 1 8 7 18 10 21 7 4 -4 4 3 2 15 -2 12 0 19 5 16
5 -3 11 -1 15 5 3 5 2 10 -4 10 -11 0 -9 19 3 39 6 9 5 12 -1 8 -6 -4 -14 0
-17 9 -3 8 -2 12 3 9 5 -3 12 -1 16 5 3 5 1 10 -6 10 -10 0 -10 3 -2 11 9 9 7
18 -5 38 -14 22 -14 24 -1 14 13 -11 15 -9 14 7 -1 11 -4 23 -8 26 -4 4 -1 14
6 22 8 10 8 13 1 9 -7 -4 -15 0 -18 9 -3 8 -2 12 3 9 5 -3 12 -1 16 5 3 5 1
10 -6 10 -7 0 -9 3 -6 6 3 4 2 15 -4 25 -7 14 -7 19 2 17 6 -2 17 15 23 37 8
26 14 35 18 25 5 -12 7 -12 7 3 1 9 5 17 10 17 5 0 8 8 7 18 -1 12 5 16 19 14
15 -2 17 0 6 6 -15 11 -6 52 11 52 6 0 5 -7 -3 -17 -13 -16 -12 -17 3 -5 10 8
14 20 11 29 -5 12 -3 14 8 8 12 -8 12 -6 0 9 -12 14 -12 17 0 14 8 -2 15 7 17
20 3 17 8 22 19 18 13 -5 14 -4 3 9 -11 13 -10 14 4 9 12 -5 15 -2 9 12 -4 11
-3 15 4 11 6 -4 10 1 9 11 0 9 4 16 10 15 8 -1 10 6 6 19 -4 17 -2 20 11 15 9
-3 16 -3 15 1 -3 17 15 61 23 56 5 -3 9 -2 8 3 -3 20 2 34 11 28 5 -3 7 0 4 8
-3 8 0 18 7 23 8 5 10 3 4 -6 -5 -9 -4 -11 4 -6 9 6 9 11 0 22 -9 11 -8 14 5
14 10 0 14 5 11 10 -4 6 -1 19 6 28 11 14 11 15 -1 5 -9 -9 -17 -9 -26 -2 -8
7 -14 6 -20 -2 -4 -8 -3 -9 4 -5 7 4 12 2 12 -3 0 -16 -16 -13 -34 5 -9 8 -16
11 -16 6 0 -5 -6 -9 -12 -10 -12 -1 -50 -7 -70 -11 -5 0 -8 -7 -8 -15 0 -8 -5
-16 -11 -18 -5 -2 -11 -12 -13 -21 -1 -10 -8 -22 -15 -27 -8 -4 -10 -13 -6
-20 6 -9 4 -11 -5 -5 -10 6 -12 4 -6 -10 5 -14 4 -16 -7 -7 -10 9 -14 8 -15
-3 -1 -8 -3 -22 -4 -30 -1 -9 -7 -14 -16 -10 -10 4 -12 0 -8 -11 3 -8 -1 -25
-9 -37 -8 -12 -15 -17 -15 -12 -1 17 -24 -29 -26 -50 -1 -11 -7 -19 -14 -17
-8 2 -10 -3 -6 -14 4 -11 2 -15 -8 -11 -10 4 -13 1 -9 -10 8 -20 -16 -34 -32
-20 -7 7 -11 20 -10 29 2 9 -3 19 -11 22 -8 3 -14 12 -14 21 0 8 -4 15 -10 15
-5 0 -9 3 -8 8 1 4 -2 17 -6 30 -6 17 -11 20 -20 13 -10 -8 -12 -4 -11 19 1
20 -3 30 -12 30 -8 0 -11 5 -8 10 3 6 2 10 -3 10 -5 0 -17 12 -26 28 l-17 27
20 -24 c12 -13 21 -19 21 -14 0 5 -9 19 -20 31 -11 12 -20 26 -20 32 0 6 -6 8
-12 4 -8 -5 -8 -2 1 10 8 9 10 16 5 15 -22 -4 -34 2 -34 17 0 9 -5 12 -12 8
-10 -6 -10 -4 0 8 8 10 9 19 3 22 -5 4 -12 2 -16 -4 -4 -6 -10 -8 -15 -5 -5 3
-11 1 -15 -5 -8 -13 -25 -13 -25 1 0 5 4 8 8 5 5 -3 9 1 9 9 0 18 -2 18 -15 2z"/>
<path d="M4478 2960 c6 -8 12 -18 12 -23 0 -5 -5 -5 -12 1 -8 5 -22 6 -33 1
-30 -12 -39 -10 -27 4 8 10 6 13 -8 13 -10 0 -17 -3 -14 -7 7 -11 -22 -18 -37
-9 -8 5 -19 4 -28 -3 -12 -9 -13 -9 -7 1 4 6 3 12 -1 12 -5 0 -15 -6 -22 -12
-11 -11 -13 -10 -8 4 5 15 3 16 -12 7 -11 -8 -17 -22 -16 -44 2 -26 -1 -32
-14 -28 -12 3 -11 1 2 -7 15 -10 16 -14 5 -28 -11 -13 -11 -14 1 -7 11 6 13 4
8 -9 -6 -14 -3 -16 14 -11 16 5 19 4 14 -5 -6 -10 -3 -10 11 -2 15 8 24 7 38
-6 13 -11 17 -12 11 -3 -6 11 -4 13 9 8 9 -4 15 -3 12 2 -3 5 1 11 9 15 8 3
17 0 21 -6 5 -7 2 -8 -7 -3 -12 8 -12 6 0 -8 15 -19 26 -23 15 -5 -5 8 -2 9
11 4 15 -5 16 -4 5 9 -11 13 -11 16 1 13 7 -2 20 -9 27 -16 12 -11 18 -10 34
4 18 17 19 17 12 -1 -5 -12 -4 -16 4 -11 6 3 14 1 18 -5 4 -7 3 -9 -3 -6 -16
10 -24 -18 -10 -32 14 -14 18 -73 6 -65 -5 3 -9 -4 -9 -16 0 -12 3 -19 8 -16
4 2 8 -17 8 -44 0 -27 -3 -47 -8 -44 -4 3 -8 -2 -8 -11 0 -9 4 -14 8 -11 5 3
9 -1 9 -9 0 -8 -4 -12 -9 -9 -4 3 -8 -4 -8 -16 0 -12 3 -19 8 -16 4 2 8 -17 8
-44 0 -27 -3 -47 -8 -44 -4 3 -8 -4 -8 -16 0 -12 3 -19 8 -16 4 2 8 -17 8 -44
0 -27 -3 -47 -8 -44 -4 3 -8 -4 -8 -16 0 -12 3 -19 8 -16 4 2 8 -17 8 -44 0
-27 -3 -47 -8 -44 -4 3 -8 -4 -8 -16 0 -12 4 -19 8 -16 5 3 9 -1 9 -9 0 -8 -4
-12 -8 -10 -10 7 -5 -22 6 -32 4 -4 5 -1 1 7 -4 8 0 6 8 -4 16 -20 16 -20 16
0 0 15 2 16 9 4 6 -8 7 -19 3 -25 -3 -5 1 -4 10 2 8 7 18 10 22 6 4 -4 4 0 1
9 -7 17 17 20 32 3 4 -4 2 -5 -4 -1 -9 5 -11 2 -6 -10 5 -15 7 -15 15 0 5 9
14 16 19 16 6 0 7 -6 3 -12 -4 -8 -3 -10 2 -5 12 12 12 30 -1 39 -6 5 -3 8 7
8 14 0 16 5 9 23 -5 14 -5 30 0 40 8 13 6 17 -8 18 -14 0 -13 2 5 9 12 5 22
12 22 15 0 4 -4 4 -9 1 -5 -3 -11 1 -15 9 -3 10 1 15 12 16 15 0 15 1 -2 8
-18 7 -18 8 0 26 16 15 16 18 3 13 -13 -5 -16 -1 -15 18 0 13 5 24 10 24 5 0
3 7 -4 15 -10 12 -9 15 6 16 18 0 18 1 -1 9 -11 5 -14 9 -7 9 10 1 10 6 1 22
-6 12 -7 24 -3 28 13 9 16 34 4 26 -5 -3 -10 -2 -10 4 0 5 5 11 12 13 6 2 12
12 14 21 1 9 -1 15 -6 12 -4 -3 -10 4 -13 15 -3 11 -1 20 4 20 6 0 5 9 -2 21
-6 12 -7 24 -3 28 13 9 16 34 4 26 -5 -3 -10 -2 -10 4 0 5 5 11 12 13 6 2 12
12 14 21 1 9 -2 15 -6 12 -12 -8 -18 26 -8 53 5 14 4 21 -1 17 -5 -3 -12 -1
-16 5 -3 5 0 10 8 10 9 0 13 9 12 25 -2 14 2 28 7 32 6 3 8 1 5 -4 -4 -6 5
-13 23 -15 16 -2 27 -1 25 3 -3 4 2 10 11 13 24 9 31 7 14 -5 -12 -7 -8 -9 16
-7 17 1 40 -4 50 -12 15 -12 16 -12 9 -1 -6 11 -4 13 9 8 9 -4 15 -3 12 2 -3
5 1 12 10 15 8 3 13 2 10 -2 -3 -4 5 -14 17 -22 19 -12 21 -11 9 2 -10 13 -9
18 3 28 13 11 14 10 9 -5 -5 -12 -4 -16 3 -12 6 4 13 18 15 32 3 13 1 22 -3
19 -12 -7 -11 3 1 25 7 14 5 24 -9 40 -12 14 -22 18 -26 11 -8 -13 -25 -13
-25 1 0 5 5 7 12 3 7 -4 8 -3 4 5 -6 9 -11 9 -22 0 -13 -11 -18 -6 -15 14 1 5
-3 6 -9 2 -6 -3 -8 -10 -5 -15 3 -4 -2 -11 -11 -14 -12 -5 -15 -2 -10 10 5 14
4 15 -9 4 -8 -7 -15 -9 -15 -5 0 4 -8 1 -17 -6 -14 -12 -16 -12 -8 0 6 11 4
13 -7 8 -9 -3 -21 0 -27 6 -9 9 -10 7 -5 -8 7 -17 6 -18 -8 -7 -11 9 -18 10
-23 2 -8 -13 -25 -13 -25 1 0 5 6 7 13 3 6 -4 9 -3 4 1 -4 5 -16 9 -26 10 -13
1 -17 -3 -13 -14 5 -13 3 -14 -9 -4 -12 10 -18 10 -29 0 -10 -10 -11 -9 -5 2
6 10 4 13 -7 8 -9 -3 -21 0 -27 6 -9 9 -10 7 -5 -8 7 -17 6 -18 -8 -7 -11 9
-18 10 -23 2 -8 -13 -25 -13 -25 1 0 5 5 7 12 3 7 -4 8 -3 4 5 -4 6 -12 9 -17
5 -5 -3 -18 0 -27 7 -14 11 -15 11 -4 -1z"/>
<path d="M299 2950 c-1 -8 -1 -18 0 -22 0 -4 -6 -5 -15 -1 -13 5 -13 8 -2 15
10 8 10 9 -2 5 -10 -2 -14 -14 -12 -36 3 -25 0 -32 -10 -26 -7 3 -4 -1 6 -9
11 -9 15 -16 10 -16 -11 0 -10 -52 1 -71 5 -8 4 -10 -3 -5 -7 4 -12 2 -12 -3
0 -6 6 -11 13 -11 7 0 8 -3 2 -8 -11 -8 -13 -42 -2 -59 4 -6 2 -13 -4 -15 -9
-3 -9 -10 1 -27 7 -15 8 -21 1 -17 -6 4 -11 3 -11 -3 0 -5 6 -12 13 -14 6 -3
7 -6 1 -6 -11 -1 -10 -52 1 -72 5 -8 4 -10 -3 -5 -7 4 -12 2 -12 -3 0 -6 6
-11 13 -11 7 0 8 -3 2 -8 -11 -8 -13 -42 -2 -59 4 -6 2 -13 -4 -15 -9 -3 -9
-10 1 -27 7 -15 8 -21 1 -17 -6 4 -11 2 -11 -3 0 -6 6 -11 13 -11 7 0 8 -3 2
-8 -12 -8 -13 -42 -2 -60 5 -7 3 -12 -4 -12 -9 0 -10 -3 -2 -11 6 -6 7 -25 3
-50 -4 -22 -4 -42 0 -44 4 -3 5 -20 1 -37 -8 -39 -3 -71 10 -63 5 4 9 2 9 -3
0 -16 28 -22 53 -13 14 6 30 5 41 -1 14 -8 17 -7 12 1 -4 6 -3 11 3 11 5 0 15
-8 21 -17 10 -16 11 -15 6 5 -5 23 -4 24 16 5 12 -10 18 -13 15 -7 -4 7 -1 14
6 16 17 7 38 -2 32 -12 -3 -5 0 -12 6 -16 8 -4 9 -3 5 4 -5 8 1 12 18 12 13 0
32 3 42 7 11 4 15 3 10 -5 -3 -6 -1 -14 5 -18 8 -4 9 -3 5 4 -5 8 1 12 18 12
13 0 32 3 40 6 11 4 15 2 13 -7 -2 -8 -2 -11 0 -6 3 4 14 7 24 7 11 0 18 4 15
9 -6 10 19 9 29 -1 10 -10 45 3 39 14 -4 6 3 5 14 -1 16 -8 23 -8 29 1 4 7 17
20 28 28 20 15 20 15 1 -10 -11 -14 -4 -9 15 10 20 19 34 38 31 43 -2 4 2 6
10 5 7 -2 12 3 11 10 -2 6 4 12 13 12 14 0 15 2 3 17 -10 11 -10 14 -1 9 7 -4
12 -1 12 9 0 9 5 13 10 10 6 -3 10 -2 10 4 0 5 -6 12 -12 15 -10 5 -10 7 0 12
15 7 16 34 1 34 -5 0 -7 5 -4 10 4 6 12 7 18 4 7 -4 4 1 -5 11 -13 14 -14 24
-7 43 9 23 8 24 -7 11 -16 -13 -16 -12 -6 8 10 18 9 24 -5 32 -13 8 -14 10 -4
11 11 0 10 4 -4 13 -10 8 -15 19 -11 25 4 8 2 10 -7 6 -8 -3 -18 0 -22 5 -3 6
-11 9 -16 6 -5 -4 -9 4 -10 17 0 22 -1 22 -9 3 -5 -11 -9 -14 -9 -7 -1 21 30
62 42 55 6 -3 7 -1 3 5 -4 7 -2 12 5 12 7 0 9 3 6 7 -4 3 1 12 11 20 10 9 11
11 2 7 -13 -7 -13 -5 -2 9 8 9 12 22 10 29 -3 7 2 19 11 26 10 9 11 11 2 6
-11 -6 -13 -3 -7 12 9 22 18 76 10 57 -10 -24 -19 -13 -19 24 0 36 -30 84 -47
76 -4 -2 -5 2 -2 10 6 16 -10 30 -41 34 -10 2 -22 8 -26 14 -3 6 -20 11 -37
11 -20 1 -29 5 -25 12 3 6 3 8 -2 4 -4 -4 -16 -3 -26 2 -12 7 -20 6 -25 -2 -4
-6 -3 -8 2 -5 6 3 16 2 23 -3 9 -5 2 -7 -18 -6 -18 0 -30 5 -27 12 2 6 -2 11
-10 11 -7 0 -11 -4 -9 -8 3 -4 -2 -9 -10 -13 -10 -3 -15 1 -15 12 0 15 -2 15
-10 2 -5 -8 -10 -11 -10 -6 0 5 -8 2 -17 -5 -9 -8 -14 -9 -10 -3 4 7 0 15 -9
18 -8 3 -12 2 -9 -3 3 -5 1 -12 -5 -16 -5 -3 -10 -1 -10 6 0 8 -5 7 -17 -2 -9
-8 -14 -9 -10 -3 4 7 0 15 -9 18 -8 3 -12 2 -9 -4 3 -5 -3 -8 -12 -8 -10 1
-29 -2 -43 -7 -21 -7 -23 -6 -13 6 10 12 8 15 -7 15 -10 0 -17 -3 -14 -7 2 -4
-3 -9 -11 -13 -10 -3 -15 1 -15 12 0 15 -2 15 -10 2 -5 -8 -10 -11 -10 -6 0 5
-6 3 -14 -3 -11 -10 -17 -8 -25 6 -8 14 -11 15 -12 3z m161 -130 c-8 -5 -10
-10 -4 -10 5 0 15 5 22 12 9 9 12 8 12 -7 0 -16 2 -17 9 -6 11 17 41 24 41 10
0 -6 5 -7 12 -3 16 10 68 11 68 2 0 -5 5 -8 11 -8 5 0 7 5 3 11 -4 7 -1 10 7
7 8 -3 13 -11 11 -17 -1 -7 6 -6 20 3 21 13 25 13 48 -8 14 -12 26 -29 28 -37
2 -7 9 -17 15 -21 9 -6 9 -8 1 -8 -7 0 -14 -10 -17 -22 -6 -22 -6 -22 8 -4 12
16 15 17 15 4 0 -8 -7 -21 -16 -29 -14 -12 -14 -14 2 -26 17 -12 17 -13 0 -13
-12 0 -16 -5 -12 -16 3 -8 2 -12 -4 -9 -6 3 -10 1 -10 -4 0 -6 -7 -11 -16 -11
-8 0 -13 -4 -9 -9 3 -6 -4 -8 -15 -6 -11 2 -20 -1 -20 -7 0 -7 -6 -6 -15 2
-12 10 -15 10 -15 0 0 -10 -3 -10 -14 -1 -11 9 -15 9 -18 0 -3 -9 -9 -9 -27 1
-15 7 -21 8 -17 1 4 -6 4 -11 1 -11 -4 0 -16 5 -27 11 -15 8 -19 8 -14 0 4 -6
4 -11 1 -11 -4 0 -16 5 -27 11 -13 7 -18 7 -14 1 4 -7 -4 -9 -21 -7 -16 2 -35
4 -43 4 -13 1 -13 3 -1 10 13 8 13 12 0 27 -8 10 -9 15 -3 11 7 -4 14 0 17 8
4 9 1 12 -7 9 -7 -3 -13 2 -13 10 0 8 4 13 9 10 4 -3 8 4 8 15 0 10 -6 21 -12
24 -10 4 -10 7 0 18 14 15 16 33 3 24 -5 -3 -13 0 -17 6 -4 8 -3 9 4 5 7 -4
12 -1 12 9 0 9 4 13 10 10 6 -4 7 1 3 10 -6 16 11 35 32 35 6 0 3 -5 -5 -10z
m3 -357 c-7 -17 -6 -17 20 0 25 16 26 16 20 0 -6 -16 -5 -16 10 -4 9 7 17 9
17 4 0 -5 14 -10 30 -10 17 0 30 4 30 9 0 5 -5 6 -12 2 -7 -4 -8 -3 -4 5 6 8
12 9 20 2 7 -6 16 -8 19 -4 4 3 7 1 7 -6 0 -10 6 -9 25 3 23 15 24 15 18 -1
-5 -15 -4 -16 8 -7 8 6 23 9 34 7 11 -2 25 -5 32 -5 7 -1 10 -5 7 -10 -3 -5
-11 -5 -17 -2 -7 4 -9 4 -5 0 3 -4 9 -6 11 -4 3 2 17 -10 31 -25 27 -29 34
-43 16 -32 -6 3 -7 -1 -4 -9 3 -9 9 -14 13 -11 4 2 6 -6 5 -18 -1 -12 -3 -22
-4 -22 -1 0 -3 -11 -4 -24 -2 -14 -9 -27 -16 -29 -9 -3 -9 -6 1 -13 11 -7 11
-9 -2 -9 -9 0 -20 -7 -23 -15 -5 -13 -10 -14 -28 -4 -20 11 -21 10 -11 -2 10
-13 8 -15 -15 -14 -15 1 -36 -3 -47 -9 -17 -8 -18 -7 -8 6 11 12 9 14 -10 12
-12 -1 -23 -3 -24 -3 -2 -1 -5 0 -6 2 -2 1 -11 -4 -21 -12 -14 -12 -16 -12
-11 1 4 9 0 15 -9 15 -8 0 -13 -4 -11 -8 3 -3 -4 -9 -16 -12 -15 -4 -18 -2
-10 7 8 10 5 12 -12 10 -12 -1 -22 -3 -22 -4 0 -6 -55 -9 -56 -3 -1 4 -2 19
-3 33 0 14 -5 31 -9 38 -5 7 -4 19 3 27 10 11 10 15 1 15 -7 0 -9 5 -5 12 13
20 12 78 0 78 -6 0 -4 6 5 13 9 7 14 18 11 26 -3 8 0 11 6 7 6 -3 13 -2 17 4
10 16 15 12 8 -7z m-138 -371 c-3 -3 -11 0 -18 7 -9 10 -8 11 6 5 10 -3 15 -9
12 -12z"/>
<path d="M690 2811 c0 -5 5 -13 10 -16 6 -3 10 -2 10 4 0 5 -4 13 -10 16 -5 3
-10 2 -10 -4z"/>
<path d="M770 2340 c0 -5 5 -10 11 -10 5 0 7 5 4 10 -3 6 -8 10 -11 10 -2 0
-4 -4 -4 -10z"/>
<path d="M1079 2948 c12 -16 9 -22 -11 -19 -4 0 -4 -7 -1 -16 5 -12 3 -14 -8
-8 -12 8 -12 6 0 -8 7 -9 10 -17 6 -17 -4 0 -1 -8 6 -17 12 -15 12 -16 -6 -9
-16 6 -18 5 -7 -5 6 -7 12 -25 12 -39 0 -14 -6 -32 -12 -39 -9 -10 -9 -12 -1
-7 8 4 11 -2 9 -21 -1 -16 1 -36 6 -45 5 -10 4 -20 -4 -24 -7 -5 -8 -3 -3 6 5
8 4 11 -3 6 -6 -4 -9 -13 -6 -21 4 -8 11 -12 17 -8 6 4 7 1 2 -8 -5 -7 -8 -44
-7 -81 2 -49 -1 -68 -10 -69 -7 0 -4 -4 7 -9 11 -5 14 -9 7 -9 -9 -1 -10 -6
-2 -20 7 -14 7 -22 -2 -27 -7 -5 -8 -3 -3 6 5 8 4 11 -3 6 -6 -4 -9 -13 -6
-21 4 -8 10 -13 14 -10 5 3 6 -4 3 -15 -3 -11 -10 -17 -17 -13 -8 5 -8 3 0 -8
16 -21 18 -82 2 -73 -10 6 -10 4 -2 -7 6 -8 11 -46 12 -86 0 -40 4 -78 8 -85
6 -9 3 -9 -9 1 -15 12 -17 12 -11 -3 3 -9 12 -16 20 -16 8 0 14 -5 14 -11 0
-5 -6 -7 -12 -3 -7 4 -10 3 -5 -1 10 -11 48 -14 41 -3 -3 4 2 8 10 8 10 0 13
-6 10 -17 -5 -14 -4 -15 4 -4 6 8 21 12 40 9 25 -3 30 -1 27 14 -3 16 -1 17
18 7 17 -9 20 -9 10 1 -6 7 -9 19 -6 26 3 8 0 14 -7 14 -10 0 -10 3 -1 14 9
10 9 16 1 21 -8 5 -8 11 1 21 9 11 9 14 -1 14 -10 0 -10 3 -1 14 9 10 9 16 1
21 -8 5 -8 11 1 21 9 11 8 14 -2 14 -8 0 -5 6 7 15 15 12 15 14 2 9 -13 -4
-16 0 -14 18 1 13 6 30 11 38 5 9 4 15 -4 18 -9 3 -9 7 -1 17 8 10 8 15 0 20
-8 5 -8 11 1 21 9 11 9 14 -1 14 -10 0 -10 3 -1 14 9 10 9 16 1 21 -8 5 -8 11
1 21 9 11 8 14 -2 14 -8 0 -5 6 7 15 15 12 15 14 2 9 -13 -4 -16 0 -14 20 1
13 9 32 16 41 7 9 9 15 4 14 -20 -4 -26 2 -15 15 9 10 9 16 1 21 -8 5 -8 11 1
21 9 11 9 14 -1 14 -10 0 -10 3 -1 14 9 10 9 16 1 21 -8 5 -8 11 1 21 9 11 8
14 -2 14 -8 0 -5 6 7 15 15 12 15 14 2 9 -13 -4 -16 0 -14 18 1 13 6 30 10 37
5 7 5 16 0 20 -13 9 -17 34 -4 26 5 -3 10 -2 10 2 0 5 -9 14 -20 21 -11 7 -20
18 -20 25 0 6 5 4 11 -5 5 -10 14 -18 19 -18 6 0 2 9 -7 20 -13 15 -20 17 -31
8 -20 -17 -52 -17 -52 -1 0 10 -5 11 -18 4 -13 -7 -23 -6 -32 2 -12 10 -12 9
-1 -5z"/>
<path d="M1324 2952 c3 -6 2 -13 -3 -17 -5 -3 -10 -15 -10 -28 -2 -91 1 -101
31 -92 12 4 27 0 40 -12 12 -10 18 -12 13 -4 -6 11 -4 13 9 8 9 -4 15 -3 12 2
-3 5 1 12 10 15 21 8 24 8 24 -5 0 -5 -5 -7 -12 -3 -7 4 -8 3 -4 -4 4 -8 15
-8 31 -2 24 9 29 6 26 -14 -1 -5 5 -3 14 4 14 12 71 23 60 11 -3 -2 1 -11 8
-19 10 -13 9 -15 -8 -9 -17 6 -18 5 -5 -5 17 -15 22 -58 6 -58 -6 0 -4 -5 4
-10 12 -8 12 -10 1 -10 -11 0 -11 -3 -1 -15 9 -11 9 -15 1 -15 -7 0 -9 -5 -4
-12 12 -21 12 -38 0 -38 -8 0 -8 -3 -2 -8 6 -4 10 -20 10 -37 0 -16 -4 -33
-10 -37 -7 -5 -7 -8 0 -8 6 0 10 -11 10 -25 0 -14 -4 -25 -10 -25 -5 0 -3 -5
5 -10 12 -8 12 -10 1 -10 -11 0 -11 -3 -1 -15 10 -12 10 -15 0 -15 -9 0 -9 -4
1 -17 16 -19 16 -23 -3 -34 -7 -5 -8 -9 -3 -9 9 0 10 -101 1 -126 -2 -6 0 -17
4 -25 6 -9 3 -21 -8 -34 -16 -19 -16 -19 1 -6 10 8 17 9 17 3 0 -6 -5 -14 -10
-17 -7 -4 -7 -13 0 -24 6 -12 5 -22 -3 -30 -9 -10 -8 -11 5 -6 11 5 18 0 23
-16 4 -12 10 -17 14 -11 6 11 24 15 54 13 11 -1 15 -6 11 -13 -4 -7 -3 -8 5
-4 6 4 8 13 4 19 -4 7 2 5 12 -3 15 -12 17 -12 10 -1 -6 11 -4 13 8 8 13 -5
17 -1 17 17 0 14 -6 27 -12 29 -8 3 -5 6 6 6 14 1 16 4 7 14 -6 8 -9 16 -7 18
8 8 13 79 6 74 -5 -3 -11 -1 -15 5 -3 5 0 10 8 10 7 0 14 7 14 15 0 8 -4 12
-8 10 -4 -3 -9 2 -12 10 -4 9 -1 12 7 9 7 -3 13 2 13 10 0 8 -4 13 -8 10 -4
-2 -10 0 -14 6 -3 5 0 10 8 10 7 0 14 7 14 15 0 8 -4 12 -8 10 -4 -3 -9 2 -12
10 -4 10 -1 12 11 7 16 -6 15 -4 -1 21 -16 25 -16 28 -2 33 14 6 14 9 -2 27
-14 16 -14 19 -3 15 12 -4 15 3 13 34 0 22 -3 42 -6 44 -2 3 -1 20 3 39 5 23
3 40 -6 54 -13 17 -12 21 2 29 11 6 13 11 5 16 -6 4 -11 12 -11 17 0 6 4 8 8
5 13 -8 8 40 -6 57 -11 12 -10 15 5 13 11 0 18 5 17 15 -1 9 5 16 13 16 8 0
12 -5 10 -12 -3 -6 3 -11 13 -11 10 0 17 3 14 7 -2 4 3 9 11 13 8 3 17 0 21
-6 4 -6 3 -8 -3 -5 -5 3 -10 0 -10 -8 0 -11 4 -12 14 -3 17 14 75 19 67 6 -4
-6 0 -7 12 -1 11 5 31 8 46 7 24 -1 26 1 15 14 -11 13 -9 14 13 2 19 -9 22
-10 13 0 -6 7 -9 19 -6 28 5 11 2 13 -8 7 -11 -6 -12 -5 -1 6 14 15 16 33 3
25 -5 -3 -7 7 -6 23 2 28 1 29 -22 20 -20 -7 -24 -6 -20 4 3 8 -1 14 -9 14 -7
0 -11 -4 -9 -8 3 -4 -2 -9 -10 -13 -10 -3 -15 1 -15 12 0 15 -2 15 -10 2 -5
-8 -10 -11 -10 -5 0 5 -5 4 -12 -3 -15 -15 -28 -15 -28 -1 0 5 5 7 12 3 7 -4
8 -3 4 5 -6 8 -12 9 -20 2 -9 -7 -17 -7 -26 2 -8 8 -11 8 -7 1 4 -7 0 -15 -9
-18 -12 -5 -15 -2 -10 9 4 11 2 14 -7 8 -6 -4 -17 -8 -23 -9 -6 -1 -22 -5 -35
-9 -20 -7 -22 -6 -12 6 10 12 8 15 -7 15 -10 0 -17 -3 -14 -7 2 -4 -3 -9 -11
-13 -10 -3 -15 1 -15 12 0 15 -2 15 -10 2 -5 -8 -10 -11 -10 -6 0 5 -8 2 -17
-5 -9 -8 -14 -9 -10 -3 4 7 0 15 -9 18 -8 3 -12 2 -9 -3 3 -5 1 -12 -5 -16 -5
-3 -10 -1 -10 6 0 8 -5 7 -17 -2 -9 -8 -14 -9 -10 -3 4 7 0 15 -9 18 -8 3 -12
2 -9 -4 3 -5 -3 -8 -12 -8 -10 1 -29 -2 -43 -7 -23 -7 -24 -7 -10 10 14 17 14
17 -16 2 -19 -10 -35 -12 -44 -7 -9 5 -20 4 -29 -3 -12 -9 -13 -9 -7 1 10 17
-4 15 -28 -5 -17 -15 -19 -15 -8 -1 10 12 10 18 1 24 -7 4 -9 3 -5 -4z m403
-197 c0 -8 -4 -12 -9 -9 -5 3 -6 10 -3 15 9 13 12 11 12 -6z"/>
<path d="M1406 2948 c3 -5 10 -6 15 -3 13 9 11 12 -6 12 -8 0 -12 -4 -9 -9z"/>
<path d="M3366 2948 c3 -5 10 -6 15 -3 13 9 11 12 -6 12 -8 0 -12 -4 -9 -9z"/>
<path d="M3688 2941 c5 -13 3 -14 -9 -4 -12 10 -18 10 -29 0 -10 -9 -11 -9 -6
1 9 16 -4 15 -28 -3 -10 -8 -24 -11 -30 -8 -8 5 -8 3 -1 -8 6 -8 10 -29 9 -47
-2 -20 2 -30 8 -26 7 5 8 2 3 -7 -13 -20 -13 -49 -1 -49 6 0 5 -4 -3 -9 -9 -6
-10 -11 -2 -15 7 -5 6 -14 -4 -30 -14 -21 -14 -24 0 -30 10 -3 13 -11 8 -18
-13 -23 -14 -50 -1 -43 7 4 2 -3 -12 -15 -13 -12 -18 -20 -10 -19 8 2 15 -1
15 -6 0 -6 -3 -9 -7 -7 -13 4 -9 -5 8 -22 14 -15 14 -16 -3 -16 -17 -1 -17 -1
0 -11 10 -6 14 -15 10 -22 -14 -22 -14 -49 -1 -42 7 4 2 -3 -12 -15 -17 -15
-20 -21 -8 -18 9 1 17 -1 16 -7 0 -5 -4 -9 -9 -7 -14 3 -11 -5 7 -23 13 -12
14 -19 5 -28 -14 -14 -14 -40 0 -31 6 3 3 -5 -6 -20 -11 -17 -13 -26 -6 -26 7
0 10 -4 6 -9 -3 -5 -1 -13 5 -16 7 -4 8 -11 2 -18 -14 -17 -12 -68 2 -60 8 5
8 3 1 -8 -12 -17 -13 -39 -1 -58 6 -10 5 -12 -2 -7 -19 12 -14 -13 8 -36 11
-12 20 -18 20 -14 0 5 7 2 17 -5 15 -13 15 -12 3 11 l-13 25 23 -20 c13 -11
20 -14 15 -6 -6 10 -2 12 16 6 13 -4 31 -12 39 -18 8 -6 12 -7 8 -3 -4 5 -3
15 3 22 6 8 9 21 5 29 -3 9 -2 13 3 10 5 -3 12 -1 16 5 3 5 2 10 -4 10 -7 0
-7 8 -2 23 9 25 4 50 -10 41 -14 -8 -11 6 6 22 16 16 9 48 -8 37 -6 -4 -7 -1
-1 8 13 21 14 41 2 62 -7 14 -7 17 1 13 6 -4 13 4 17 18 4 16 11 23 20 19 8
-3 11 -10 8 -17 -3 -6 4 0 15 14 12 14 20 19 19 11 -2 -7 3 -16 11 -19 8 -2
11 0 8 5 -4 7 7 8 32 3 21 -4 49 -6 62 -4 13 1 28 3 32 3 5 1 5 6 1 13 -5 7
-3 8 7 3 19 -12 49 -14 49 -2 0 5 6 7 13 4 6 -2 17 3 23 12 10 13 14 13 30 1
11 -9 15 -10 10 -2 -4 7 -2 12 8 12 8 0 22 9 30 21 8 12 19 18 25 15 5 -4 13
-1 17 5 5 8 3 9 -6 4 -9 -5 -11 -4 -6 3 4 7 15 12 24 12 15 1 14 3 -3 17 -18
14 -18 15 -1 9 13 -5 17 -2 12 9 -3 8 0 14 6 12 18 -3 39 45 26 60 -8 10 -7
13 3 13 10 0 10 3 1 12 -8 8 -8 15 -1 24 7 8 7 14 -1 19 -8 5 -8 11 1 21 9 11
9 14 0 14 -8 0 -9 5 -2 19 8 14 6 23 -9 36 -11 10 -19 20 -18 24 3 25 -4 51
-12 46 -6 -3 -10 4 -11 17 0 21 -1 21 -8 3 -6 -16 -9 -14 -15 15 -4 19 -10 30
-13 23 -3 -10 -7 -10 -18 0 -7 7 -10 16 -7 21 3 5 0 6 -6 2 -6 -3 -14 -1 -17
5 -4 5 -13 8 -21 5 -7 -3 -20 1 -28 9 -18 18 -30 20 -20 3 5 -10 4 -10 -6 -1
-7 6 -19 9 -28 6 -8 -4 -13 -2 -9 3 3 5 -3 10 -13 10 -10 0 -16 -4 -14 -8 8
-13 -7 -9 -22 6 -12 13 -19 13 -49 0 -44 -18 -51 -18 -34 3 13 15 12 15 -8 4
-13 -6 -23 -9 -23 -5 0 3 -8 0 -17 -7 -14 -12 -16 -12 -8 0 6 11 4 13 -7 8 -9
-3 -21 0 -27 6 -9 9 -10 7 -5 -8 7 -17 6 -18 -8 -7 -11 9 -18 10 -23 2 -8 -13
-25 -13 -25 1 0 5 6 7 13 3 6 -4 9 -3 4 1 -4 5 -16 9 -26 10 -13 1 -17 -3 -13
-14z m246 1 c3 -5 -1 -9 -9 -9 -8 0 -12 4 -9 9 3 4 7 8 9 8 2 0 6 -4 9 -8z
m-124 -123 c0 -5 -4 -8 -8 -5 -5 3 -9 -1 -9 -9 0 -11 4 -12 13 -4 7 6 19 7 25
3 8 -4 9 -3 5 4 -4 7 -3 12 3 12 5 0 13 -5 16 -10 4 -6 11 -8 16 -4 5 3 18 0
27 -8 15 -11 16 -11 4 3 -10 14 -10 18 3 23 9 3 14 2 11 -3 -3 -5 1 -11 9 -15
8 -3 14 -2 14 2 -3 21 3 24 17 6 8 -10 13 -12 9 -4 -5 12 -4 12 7 -1 7 -9 19
-14 25 -12 7 3 16 -2 19 -11 4 -12 11 -13 24 -6 16 8 18 6 15 -15 -1 -14 0
-24 2 -21 3 3 11 -1 18 -7 9 -9 10 -16 2 -25 -6 -7 -6 -12 -1 -11 23 4 26 -2
8 -17 -10 -8 -14 -13 -7 -10 6 4 14 2 18 -4 3 -5 1 -10 -4 -10 -6 0 -11 -5
-11 -11 0 -5 4 -8 9 -4 5 3 13 0 17 -6 4 -7 3 -10 -2 -7 -12 7 -29 -12 -29
-32 0 -9 -10 -28 -22 -44 -13 -16 -23 -24 -23 -19 0 5 6 15 13 22 9 11 7 10
-10 0 -13 -8 -23 -18 -23 -23 0 -4 -13 -6 -30 -4 -24 4 -27 2 -19 -9 8 -9 8
-13 1 -13 -6 0 -16 8 -21 18 -10 16 -10 16 -11 -2 0 -19 0 -19 -13 -1 -11 14
-16 15 -22 5 -5 -8 -4 -11 2 -7 5 3 10 0 10 -8 0 -11 -4 -12 -13 -4 -7 6 -19
7 -25 3 -7 -4 -9 -3 -6 3 4 6 0 13 -8 16 -9 4 -12 1 -9 -7 6 -15 -25 -18 -43
-3 -9 6 -13 6 -13 -2 0 -6 -5 -11 -11 -11 -5 0 -7 5 -3 12 5 7 2 9 -8 6 -11
-5 -15 0 -14 20 1 15 5 32 9 39 4 6 2 15 -4 19 -8 5 -9 3 -4 -6 6 -9 4 -11 -4
-5 -9 5 -10 10 -2 18 14 14 14 30 1 22 -6 -3 -7 1 -4 9 3 9 10 16 15 16 4 0 6
7 2 16 -5 13 -7 13 -14 2 -6 -9 -9 -9 -9 -1 0 6 5 15 10 18 15 9 12 27 -2 19
-10 -6 -10 -4 0 7 13 14 17 33 4 25 -4 -2 -8 4 -8 14 0 15 3 17 15 7 12 -10
13 -9 3 10 -16 29 -15 34 5 26 10 -4 14 -2 10 4 -4 6 -1 14 5 16 21 9 28 8 28
-4z m425 -239 c-3 -5 -12 -10 -18 -10 -7 0 -6 4 3 10 19 12 23 12 15 0z m-482
-395 c-3 -9 -8 -14 -10 -11 -3 3 -2 9 2 15 9 16 15 13 8 -4z"/>
<path d="M4228 2773 c7 -3 16 -2 19 1 4 3 -2 6 -13 5 -11 0 -14 -3 -6 -6z"/>
<path d="M2279 2693 c-13 -16 -12 -17 4 -4 16 13 21 21 13 21 -2 0 -10 -8 -17
-17z"/>
<path d="M4070 2416 c0 -2 8 -10 18 -17 15 -13 16 -12 3 4 -13 16 -21 21 -21
13z"/>
<path d="M1385 2013 c-5 -13 -9 -14 -12 -5 -4 10 -9 8 -20 -5 -8 -10 -12 -13
-9 -6 4 6 2 14 -4 18 -5 3 -10 3 -10 -2 0 -4 -16 -9 -36 -11 -19 -1 -33 2 -30
7 3 5 -3 7 -14 4 -11 -3 -17 -10 -13 -17 4 -6 -1 -5 -10 3 -15 12 -17 11 -17
-6 0 -11 -11 -32 -25 -47 -14 -15 -22 -33 -18 -39 4 -8 1 -8 -9 1 -13 10 -16
10 -15 0 1 -32 -4 -49 -13 -43 -5 3 -10 1 -10 -5 0 -6 -5 -8 -12 -4 -6 4 -8 3
-4 -4 3 -6 1 -14 -5 -17 -5 -4 -8 -14 -5 -22 4 -9 -1 -17 -14 -20 -11 -3 -17
-9 -14 -14 3 -5 0 -9 -6 -9 -7 0 -9 -7 -6 -16 3 -8 2 -12 -4 -9 -6 3 -10 1
-10 -5 0 -6 -4 -9 -9 -6 -5 4 -8 -2 -6 -11 3 -22 -24 -55 -38 -46 -6 3 -7 1
-3 -5 3 -6 -6 -23 -21 -38 -16 -15 -20 -22 -10 -14 15 11 17 11 11 -4 -3 -9
-12 -16 -20 -16 -8 0 -14 -7 -14 -16 0 -8 -4 -12 -10 -9 -6 4 -7 -1 -3 -11 5
-14 3 -16 -12 -11 -14 6 -16 5 -6 -7 9 -11 8 -15 -4 -20 -9 -3 -15 -14 -13
-23 2 -10 -2 -17 -9 -15 -7 1 -13 -3 -13 -9 0 -5 -6 -7 -12 -3 -8 5 -7 0 2
-11 8 -10 10 -16 4 -12 -7 4 -18 -1 -25 -10 -10 -11 -10 -14 -2 -9 9 5 11 2 7
-9 -4 -9 -13 -14 -21 -11 -8 3 -11 1 -8 -4 3 -6 0 -10 -7 -10 -8 0 -7 -4 4
-11 10 -5 15 -16 12 -24 -4 -8 -1 -15 5 -15 6 0 11 6 11 13 0 9 3 8 9 -2 6 -9
10 -10 16 -2 5 9 10 9 21 0 11 -9 14 -8 14 2 0 9 3 10 8 4 8 -13 22 -13 41 -1
11 7 13 5 7 -9 -5 -15 -4 -16 9 -5 8 7 15 9 15 4 0 -5 5 -2 10 6 5 8 10 10 10
5 0 -6 9 -11 20 -12 11 -1 19 1 16 5 -2 4 7 7 20 7 17 0 23 -4 19 -14 -5 -12
-3 -12 11 0 19 16 53 19 61 6 3 -5 9 -3 14 4 7 12 9 12 9 0 0 -11 3 -11 17 0
14 12 16 12 11 -1 -4 -11 0 -16 12 -16 10 0 17 4 14 7 -2 4 0 10 6 14 5 3 10
2 10 -3 0 -5 7 -9 15 -9 8 0 15 5 15 11 0 6 4 5 9 -2 4 -8 12 -14 16 -14 4 0
12 6 16 14 5 7 9 8 9 3 0 -6 9 -11 20 -12 11 -1 19 1 16 5 -2 4 7 7 20 7 17 0
23 -4 19 -14 -5 -12 -3 -12 11 0 19 16 53 19 61 6 3 -5 9 -3 14 4 7 12 9 12 9
0 0 -11 3 -11 17 0 15 12 16 12 10 -5 -6 -16 -5 -17 8 -6 8 7 15 9 15 4 0 -5
5 -2 10 6 5 8 10 10 10 5 0 -6 9 -11 20 -12 11 -1 18 1 16 5 -3 4 4 8 15 8 10
0 19 -3 19 -6 0 -3 9 -6 20 -6 11 0 20 5 20 11 0 5 5 3 10 -5 9 -13 11 -13 20
0 5 9 10 10 10 3 0 -13 18 -12 39 1 11 7 13 5 7 -9 -5 -15 -4 -16 9 -5 8 7 15
9 15 4 0 -5 5 -2 10 6 5 8 10 10 10 5 0 -6 9 -11 20 -12 11 -1 19 1 16 5 -2 4
7 7 20 7 17 0 23 -4 19 -14 -5 -12 -2 -11 12 1 13 12 23 14 36 7 11 -7 17 -7
17 0 0 6 7 7 17 4 9 -4 14 -2 11 3 -3 5 5 17 19 28 l25 19 -17 -27 c-24 -36
-14 -33 14 5 13 18 19 29 12 25 -6 -4 -11 -3 -11 2 0 6 7 13 16 16 8 3 13 10
9 15 -3 6 1 14 10 18 8 5 16 18 18 30 4 25 26 55 37 48 4 -3 7 3 6 13 0 9 4
16 11 15 8 -2 10 4 6 14 -5 13 -2 15 11 10 10 -4 15 -3 11 3 -8 13 5 61 15 55
11 -7 42 43 35 55 -3 6 2 10 12 10 14 0 15 2 5 9 -10 6 -8 10 8 14 16 4 21 11
16 23 -4 11 -2 15 7 11 8 -3 14 1 14 9 0 7 -4 11 -9 8 -4 -3 -5 2 -2 10 3 8
11 13 19 10 7 -3 15 2 19 11 4 11 2 14 -7 9 -8 -5 -8 -2 2 9 7 9 18 14 25 10
6 -4 4 2 -4 12 -12 15 -12 17 -1 10 11 -6 13 -4 7 10 -5 15 -4 16 9 5 8 -7 15
-9 15 -6 0 4 7 0 16 -9 9 -8 13 -23 10 -32 -6 -13 -4 -14 9 -3 13 11 16 11 13
-1 -2 -8 3 -13 10 -11 10 2 10 -2 1 -20 -12 -22 -11 -22 6 -8 11 9 16 10 11 3
-4 -8 -2 -13 6 -13 9 0 9 -3 -2 -10 -13 -8 -12 -10 4 -10 12 0 16 -5 12 -16
-3 -8 -2 -12 4 -9 6 3 10 -1 10 -9 0 -9 5 -16 10 -16 6 0 10 -7 10 -16 0 -8 5
-12 10 -9 9 6 14 -8 11 -28 -1 -5 8 -11 20 -14 16 -4 17 -8 7 -14 -10 -7 -10
-9 0 -9 6 0 12 -5 12 -11 0 -6 11 -20 25 -31 14 -11 23 -24 19 -29 -7 -13 15
-41 27 -33 13 8 11 -10 -3 -25 -10 -11 -10 -13 0 -7 6 4 12 2 12 -4 0 -6 5 -8
10 -5 6 3 10 -3 10 -15 0 -14 4 -19 13 -14 7 5 7 1 -3 -12 -8 -10 -10 -16 -6
-12 13 11 36 -11 36 -34 0 -10 5 -16 10 -13 6 3 10 1 10 -4 0 -6 7 -11 15 -11
8 0 15 -4 15 -10 0 -5 9 -6 23 -2 27 9 48 9 64 -1 6 -4 14 -4 16 0 6 10 129 9
145 0 6 -4 13 -4 15 0 6 10 129 9 145 0 6 -4 13 -4 15 0 6 10 129 9 145 0 6
-4 13 -4 15 0 6 10 129 9 145 0 6 -4 13 -4 15 0 6 10 129 9 145 0 6 -4 13 -4
15 0 4 6 142 9 142 3 0 -1 8 -3 18 -5 9 -2 17 1 17 7 0 6 6 5 15 -2 12 -10 15
-10 15 1 0 12 2 12 9 0 6 -9 11 -10 15 -2 4 6 11 9 16 6 5 -3 11 -1 15 5 3 5
2 10 -4 10 -6 0 -8 7 -4 15 3 10 0 15 -8 13 -8 -2 -15 7 -17 20 -2 12 -7 20
-11 18 -4 -3 -13 5 -21 17 -12 21 -12 21 6 7 18 -14 18 -14 5 3 -7 9 -21 17
-30 17 -11 0 -12 3 -4 8 9 6 7 12 -7 22 -11 8 -20 20 -20 28 0 7 -5 10 -11 6
-8 -4 -9 0 -4 15 4 15 3 21 -7 19 -7 -2 -12 3 -10 10 1 6 -3 12 -9 12 -5 0 -7
5 -3 12 5 7 2 9 -8 5 -10 -3 -15 0 -14 11 0 10 -5 16 -13 14 -8 -2 -11 3 -8
11 3 7 -4 19 -14 25 -10 7 -19 21 -19 33 0 11 -4 18 -9 15 -11 -7 -23 22 -14
36 3 7 1 8 -5 4 -7 -4 -12 -1 -12 8 0 8 -5 18 -12 22 -7 5 -8 3 -3 -6 5 -8 4
-11 -3 -6 -6 4 -9 13 -5 21 3 10 -1 15 -13 16 -13 0 -15 2 -5 6 10 4 5 10 -15
20 -16 7 -22 11 -13 9 9 -2 16 2 16 9 0 8 -5 13 -11 12 -6 -1 -10 4 -8 11 1 8
-2 11 -8 7 -5 -3 -13 2 -17 12 -4 10 -14 24 -22 31 -14 10 -13 11 4 7 17 -5
16 -4 -2 6 -13 7 -25 20 -29 31 -3 10 -13 18 -22 17 -9 -1 -19 0 -22 1 -16 6
-58 4 -54 -2 3 -4 0 -8 -5 -8 -6 0 -11 5 -11 11 0 7 -9 5 -24 -5 -15 -10 -27
-12 -31 -6 -9 15 -37 12 -30 -2 4 -7 -1 -4 -9 6 -9 11 -16 15 -16 9 0 -6 -9
-9 -22 -5 -14 3 -19 1 -14 -6 5 -8 2 -10 -8 -6 -9 3 -14 9 -12 13 3 4 -6 7
-19 7 -13 0 -22 -3 -19 -7 2 -4 -17 -5 -42 -3 -29 3 -43 1 -39 -6 3 -6 0 -7
-9 -4 -9 3 -13 10 -10 15 3 5 -2 6 -10 3 -10 -4 -16 -1 -16 7 0 8 -6 5 -16 -7
-8 -10 -12 -12 -8 -4 5 10 -1 8 -16 -5 -13 -11 -20 -15 -17 -8 4 6 3 14 -3 18
-5 3 -10 3 -10 -2 0 -4 -11 -9 -25 -9 -14 -1 -23 1 -20 5 2 4 -2 8 -10 8 -8 0
-12 -4 -9 -9 3 -4 0 -8 -5 -8 -6 0 -11 5 -11 11 0 7 -9 5 -24 -5 -15 -10 -27
-12 -31 -6 -9 15 -37 12 -30 -2 4 -7 -1 -4 -9 6 -9 11 -16 15 -16 9 0 -6 -9
-9 -22 -5 -14 3 -19 1 -14 -6 5 -8 2 -10 -8 -6 -9 3 -14 9 -12 13 3 4 -6 7
-19 7 -13 0 -21 -4 -19 -8 3 -4 0 -8 -5 -8 -6 0 -11 6 -11 13 0 6 -5 4 -11 -6
-9 -15 -13 -16 -27 -5 -13 11 -14 11 -7 -1 6 -11 3 -13 -13 -9 -12 4 -20 2
-16 -3 3 -5 -1 -9 -8 -10 -7 0 -21 -2 -31 -4 -11 -2 -15 1 -10 8 4 7 -1 6 -10
-2 -14 -11 -17 -11 -17 0 -1 10 -3 10 -10 -2 -8 -13 -18 -15 -52 -9 -29 6 -45
5 -50 -3 -5 -8 -8 -8 -8 2 0 11 -4 10 -16 -5 -11 -13 -14 -14 -11 -3 4 12 -1
14 -24 11 -17 -2 -26 -9 -22 -15 4 -6 1 -7 -6 -3 -7 5 -10 15 -6 24 5 13 3 13
-14 -2 -14 -13 -21 -14 -27 -5 -5 8 -3 10 6 4 9 -5 11 -4 6 4 -4 6 -13 8 -19
4 -19 -12 -41 -9 -55 7 -8 8 -11 9 -7 3 3 -7 1 -13 -4 -13 -6 0 -11 5 -11 11
0 5 -4 7 -10 4 -5 -3 -10 -1 -10 6 0 9 -3 9 -14 0 -9 -8 -16 -8 -20 -2 -4 6
-14 7 -23 4 -11 -4 -14 -3 -9 5 4 7 2 12 -3 12 -6 0 -11 -8 -11 -17 0 -13 -2
-15 -8 -5 -5 8 -16 10 -27 6 -11 -4 -16 -3 -12 2 3 5 -3 10 -14 10 -10 0 -19
-4 -19 -9 0 -5 -7 -4 -15 3 -8 7 -15 8 -15 3 0 -5 -9 -9 -20 -10 -11 -1 -18 2
-15 7 3 6 -1 7 -9 4 -10 -4 -16 -1 -16 7 0 8 -6 5 -15 -7 -10 -14 -14 -15 -15
-5 0 11 -4 10 -16 -5 -8 -10 -13 -14 -10 -7 4 6 2 14 -4 18 -5 3 -10 3 -10 -2
0 -4 -11 -9 -25 -9 -14 -1 -22 2 -19 8 4 6 -3 5 -15 -1 -16 -9 -21 -9 -21 0 0
7 -9 6 -24 -5 -15 -10 -27 -12 -31 -6 -9 15 -37 12 -30 -2 4 -7 -1 -4 -9 6 -9
11 -16 15 -16 9 0 -6 -9 -9 -22 -5 -14 3 -19 1 -14 -6 5 -8 2 -10 -8 -6 -9 3
-14 10 -11 14 3 4 -10 6 -28 4 -17 -2 -47 -4 -64 -5 -18 -1 -30 -5 -27 -10 3
-5 -2 -6 -10 -3 -9 3 -13 11 -9 17 4 6 1 7 -7 2 -7 -4 -15 -2 -20 5 -5 8 -9 6
-15 -7z m1020 -61 c-3 -3 -11 0 -18 7 -9 10 -8 11 6 5 10 -3 15 -9 12 -12z"/>
<path d="M1004 1712 c3 -5 0 -13 -6 -15 -9 -4 -10 -6 -1 -6 17 -1 25 16 12 25
-7 4 -9 3 -5 -4z"/>
<path d="M3645 1711 c-3 -5 -2 -12 3 -15 5 -3 9 1 9 9 0 17 -3 19 -12 6z"/>
<path d="M2530 1559 c0 -5 5 -7 10 -4 6 3 10 8 10 11 0 2 -4 4 -10 4 -5 0 -10
-5 -10 -11z"/>
<path d="M2065 1521 c-3 -5 0 -13 6 -17 7 -4 9 -3 5 4 -3 5 0 13 6 15 9 4 10
6 1 6 -6 1 -14 -3 -18 -8z"/>
</g>
</svg>
